# xmcd
#
# Track frame offsets: 
#        150
#        17304
#        34828
#        53165
#        66557
#        83700
#        99737
#        116614
#        132181
#        147479
#        157457
#        165938
#        182338
#        199044
#        215687
#
# Disc length: 3119 seconds
#
# Revision: 2
# Processed by: cddbd v1.5.2PL0 Copyright (c) Steve Scherf et al.
# Submitted via: ExactAudioCopyFreeDBPlugin 1.0
#
DISCID=d30c2d0f
DTITLE=Bruno Mars - Unorthodox Jukebox (Deluxe Edition)
DYEAR=2012
DGENRE=Pop
TTITLE0=Young Girls
TTITLE1=Locked Out Of Heaven
TTITLE2=Gorilla
TTITLE3=Treasure
TTITLE4=Moonshine
TTITLE5=When I Was Your Man
TTITLE6=Natalie
TTITLE7=Show Me
TTITLE8=Money Make Her Smile
TTITLE9=If I Knew
TTITLE10=Old and Crazy ft. Esperanza Spalding (Bonus Track)
TTITLE11=Young Girls (Demo Version)(Bonus Track)
TTITLE12=Gorilla (Demo Version)(Bonus Track)
TTITLE13=Moonshine (The Futuristics Remix)(Bonus Track)
TTITLE14=Locked Out Of Heaven (Major Lazer Remix)(Bonus Track)
EXTD=
EXTT0=
EXTT1=
EXTT2=
EXTT3=
EXTT4=
EXTT5=
EXTT6=
EXTT7=
EXTT8=
EXTT9=
EXTT10=
EXTT11=
EXTT12=
EXTT13=
EXTT14=
PLAYORDER=
